<?xml version="1.0" encoding="UTF-8" standalone="no"?>
<!-- Created with Inkscape (http://www.inkscape.org/) -->

<svg
   xmlns:dc="http://purl.org/dc/elements/1.1/"
   xmlns:cc="http://creativecommons.org/ns#"
   xmlns:rdf="http://www.w3.org/1999/02/22-rdf-syntax-ns#"
   xmlns:svg="http://www.w3.org/2000/svg"
   xmlns="http://www.w3.org/2000/svg"
   xmlns:sodipodi="http://sodipodi.sourceforge.net/DTD/sodipodi-0.dtd"
   xmlns:inkscape="http://www.inkscape.org/namespaces/inkscape"
   width="400"
   height="400"
   id="svg2894"
   version="1.1"
   inkscape:version="0.92.4 (unknown)"
   sodipodi:docname="mallard-logo.svg">
  <defs
     id="defs2896">
    <inkscape:perspective
       sodipodi:type="inkscape:persp3d"
       inkscape:vp_x="0 : 526.18109 : 1"
       inkscape:vp_y="0 : 1000 : 0"
       inkscape:vp_z="744.09448 : 526.18109 : 1"
       inkscape:persp3d-origin="372.04724 : 350.78739 : 1"
       id="perspective2902" />
    <inkscape:perspective
       id="perspective2881"
       inkscape:persp3d-origin="0.5 : 0.33333333 : 1"
       inkscape:vp_z="1 : 0.5 : 1"
       inkscape:vp_y="0 : 1000 : 0"
       inkscape:vp_x="0 : 0.5 : 1"
       sodipodi:type="inkscape:persp3d" />
    <inkscape:perspective
       id="perspective2937"
       inkscape:persp3d-origin="0.5 : 0.33333333 : 1"
       inkscape:vp_z="1 : 0.5 : 1"
       inkscape:vp_y="0 : 1000 : 0"
       inkscape:vp_x="0 : 0.5 : 1"
       sodipodi:type="inkscape:persp3d" />
    <inkscape:perspective
       id="perspective2990"
       inkscape:persp3d-origin="0.5 : 0.33333333 : 1"
       inkscape:vp_z="1 : 0.5 : 1"
       inkscape:vp_y="0 : 1000 : 0"
       inkscape:vp_x="0 : 0.5 : 1"
       sodipodi:type="inkscape:persp3d" />
    <inkscape:perspective
       id="perspective3016"
       inkscape:persp3d-origin="0.5 : 0.33333333 : 1"
       inkscape:vp_z="1 : 0.5 : 1"
       inkscape:vp_y="0 : 1000 : 0"
       inkscape:vp_x="0 : 0.5 : 1"
       sodipodi:type="inkscape:persp3d" />
  </defs>
  <sodipodi:namedview
     id="base"
     pagecolor="#ffffff"
     bordercolor="#666666"
     borderopacity="1.0"
     inkscape:pageopacity="0.0"
     inkscape:pageshadow="2"
     inkscape:zoom="4.1440339"
     inkscape:cx="163.31246"
     inkscape:cy="209.15687"
     inkscape:document-units="px"
     inkscape:current-layer="layer1"
     showgrid="false"
     inkscape:window-width="1604"
     inkscape:window-height="927"
     inkscape:window-x="0"
     inkscape:window-y="27"
     inkscape:window-maximized="0" />
  <metadata
     id="metadata2899">
    <rdf:RDF>
      <cc:Work
         rdf:about="">
        <dc:format>image/svg+xml</dc:format>
        <dc:type
           rdf:resource="http://purl.org/dc/dcmitype/StillImage" />
        <dc:title></dc:title>
      </cc:Work>
    </rdf:RDF>
  </metadata>
  <g
     inkscape:label="Layer 1"
     inkscape:groupmode="layer"
     id="layer1"
     transform="translate(0,-652.36218)">
    <circle
       r="113.13708"
       cy="847.50507"
       cx="193.14285"
       style="display:inline;overflow:visible;visibility:visible;fill:#1c71d8;fill-opacity:1;fill-rule:evenodd;stroke:none;stroke-width:8;marker:none;enable-background:accumulate"
       id="path9960-5"
       inkscape:export-xdpi="33.941124"
       inkscape:export-ydpi="33.941124" />
    <path
       inkscape:connector-curvature="0"
       id="path9962-9"
       d="m 154.8125,801 c -7.4884,7.91576 -18.03264,12.20164 -32.21875,17.40625 -3.7518,4.98592 3.75915,11.08549 13.78125,11.53125 7.5051,0.46149 15.6011,-3.77997 21.6875,-6.53125 2.24432,-1.48364 4.59112,-3.05799 7.15625,-4.0625 -0.66656,-0.46744 -1.24868,-0.98801 -1.78125,-1.625 -1.43527,-1.71668 -2.29974,-3.99024 -3.34375,-7.625 -1.00037,-3.48285 -1.81358,-5.51551 -2.625,-6.75 -0.7345,-1.11746 -1.45421,-1.69621 -2.65625,-2.34375 z m 8.4375,9.1875 c 0.75017,2.46277 1.41056,4.05326 2.125,5.09375 -0.49496,-1.56318 -1.2911,-3.35466 -2.125,-5.09375 z"
       style="fill:#f8e45c;fill-opacity:1;fill-rule:evenodd;stroke:none" />
    <path
       inkscape:connector-curvature="0"
       sodipodi:nodetypes="ccsssccscsssccc"
       id="path9964-8"
       d="m 199.375,769.375 c -36.08623,0 -42.18367,28.15629 -42.4375,29.40625 1.16384,0.72057 2.17923,1.60998 3.03125,2.90625 1.11687,1.69922 1.96899,3.973 3,7.5625 0.99233,3.45483 1.80531,5.29434 2.71875,6.46875 1.24869,1.60544 3.26452,2.22017 4.75,3 1.58402,0.67352 3.46313,1.22112 5.6875,1.65625 0,0 17,1.84287 17,14 0,10.83946 -18.6875,41.25 -18.6875,41.25 -0.9909,1.70636 -1.5625,3.6972 -1.5625,5.8125 0,6.39291 5.20084,11.5625 11.59375,11.5625 6.39291,0 11.5625,-5.16959 11.5625,-11.5625 0,-2.53786 -0.83379,-4.8734 -2.21875,-6.78125 -3.53757,-16.99723 42.8125,-36.5384 42.8125,-62.78125 0,0 -0.8056,-42.5 -37.25,-42.5 z"
       style="fill:#ffffff;fill-rule:evenodd;stroke:none" />
    <path
       inkscape:connector-curvature="0"
       style="fill:#1c71d8;fill-opacity:1;fill-rule:evenodd;stroke:none"
       d="m 166.25979,807.50371 c 0,0 15.5435,-11.20195 26.5165,-14.14214 11.3119,-3.03102 23.6881,0.70711 23.6881,0.70711 0,0 -11.9184,-11.54423 -23.3346,-8.48528 -11.7372,3.14499 -26.87,21.92031 -26.87,21.92031 z"
       id="path9966-4"
       sodipodi:nodetypes="czczc" />
    <path
       inkscape:connector-curvature="0"
       id="path14"
       d="m 193.86792,786.82615 c 0,2.24366 -1.81884,4.0625 -4.0625,4.0625 -2.24366,0 -4.0625,-1.81884 -4.0625,-4.0625 0,-2.24365 1.81884,-4.0625 4.0625,-4.0625 2.24366,0 4.0625,1.81885 4.0625,4.0625 z"
       style="display:inline;overflow:visible;visibility:visible;fill:#ffffff;fill-opacity:1;fill-rule:evenodd;stroke:#3465a4;stroke-width:2;stroke-linecap:round;stroke-linejoin:miter;stroke-miterlimit:4;stroke-dashoffset:0;stroke-opacity:1;marker:none;enable-background:accumulate" />
    <circle
       r="16.525127"
       cy="916.39813"
       cx="185.70517"
       style="display:inline;overflow:visible;visibility:visible;fill:#ffffff;fill-opacity:1;fill-rule:evenodd;stroke:none;stroke-width:8.69743538;marker:none;enable-background:accumulate"
       id="path9972-0" />
    <path
       style="font-size:medium;font-style:normal;font-variant:normal;font-weight:normal;font-stretch:normal;text-indent:0;text-align:start;text-decoration:none;line-height:normal;letter-spacing:normal;word-spacing:normal;text-transform:none;direction:ltr;block-progression:tb;writing-mode:lr-tb;text-anchor:start;color:#000000;fill:#1c71d8;fill-opacity:1;fill-rule:evenodd;stroke:none;stroke-width:2;marker:none;visibility:visible;display:inline;overflow:visible;enable-background:accumulate;font-family:Bitstream Charter;-inkscape-font-specification:Bitstream Charter"
       d="m 189.80543,781.77647 c -2.7841,0 -5.0625,2.2784 -5.0625,5.0625 0,2.7841 2.2784,5.0625 5.0625,5.0625 2.7841,0 5.0625,-2.2784 5.0625,-5.0625 0,-2.7841 -2.2784,-5.0625 -5.0625,-5.0625 z m 0,2 c 1.70322,0 3.0625,1.35928 3.0625,3.0625 0,1.70322 -1.35928,3.0625 -3.0625,3.0625 -1.70322,0 -3.0625,-1.35928 -3.0625,-3.0625 0,-1.70322 1.35928,-3.0625 3.0625,-3.0625 z"
       id="path9968-8-5" />
  </g>
</svg>
