<?xml version="1.0" encoding="UTF-8" standalone="no"?>
<!-- Created with Inkscape (http://www.inkscape.org/) -->

<svg
   xmlns:dc="http://purl.org/dc/elements/1.1/"
   xmlns:cc="http://creativecommons.org/ns#"
   xmlns:rdf="http://www.w3.org/1999/02/22-rdf-syntax-ns#"
   xmlns:svg="http://www.w3.org/2000/svg"
   xmlns="http://www.w3.org/2000/svg"
   xmlns:sodipodi="http://sodipodi.sourceforge.net/DTD/sodipodi-0.dtd"
   xmlns:inkscape="http://www.inkscape.org/namespaces/inkscape"
   width="640"
   height="100"
   id="svg2894"
   version="1.1"
   inkscape:version="0.46+devel"
   sodipodi:docname="mallard-header.svg">
  <defs
     id="defs2896">
    <inkscape:perspective
       sodipodi:type="inkscape:persp3d"
       inkscape:vp_x="0 : 526.18109 : 1"
       inkscape:vp_y="0 : 1000 : 0"
       inkscape:vp_z="744.09448 : 526.18109 : 1"
       inkscape:persp3d-origin="372.04724 : 350.78739 : 1"
       id="perspective2902" />
    <inkscape:perspective
       id="perspective2881"
       inkscape:persp3d-origin="0.5 : 0.33333333 : 1"
       inkscape:vp_z="1 : 0.5 : 1"
       inkscape:vp_y="0 : 1000 : 0"
       inkscape:vp_x="0 : 0.5 : 1"
       sodipodi:type="inkscape:persp3d" />
    <inkscape:perspective
       id="perspective2937"
       inkscape:persp3d-origin="0.5 : 0.33333333 : 1"
       inkscape:vp_z="1 : 0.5 : 1"
       inkscape:vp_y="0 : 1000 : 0"
       inkscape:vp_x="0 : 0.5 : 1"
       sodipodi:type="inkscape:persp3d" />
    <inkscape:perspective
       id="perspective2990"
       inkscape:persp3d-origin="0.5 : 0.33333333 : 1"
       inkscape:vp_z="1 : 0.5 : 1"
       inkscape:vp_y="0 : 1000 : 0"
       inkscape:vp_x="0 : 0.5 : 1"
       sodipodi:type="inkscape:persp3d" />
    <inkscape:perspective
       id="perspective3016"
       inkscape:persp3d-origin="0.5 : 0.33333333 : 1"
       inkscape:vp_z="1 : 0.5 : 1"
       inkscape:vp_y="0 : 1000 : 0"
       inkscape:vp_x="0 : 0.5 : 1"
       sodipodi:type="inkscape:persp3d" />
  </defs>
  <sodipodi:namedview
     id="base"
     pagecolor="#ffffff"
     bordercolor="#666666"
     borderopacity="1.0"
     inkscape:pageopacity="0.0"
     inkscape:pageshadow="2"
     inkscape:zoom="9.85625"
     inkscape:cx="68.965995"
     inkscape:cy="73.051247"
     inkscape:document-units="px"
     inkscape:current-layer="layer1"
     showgrid="true"
     inkscape:window-width="1680"
     inkscape:window-height="1004"
     inkscape:window-x="0"
     inkscape:window-y="25"
     inkscape:window-maximized="1">
    <inkscape:grid
       type="xygrid"
       id="grid2823"
       empspacing="5"
       visible="true"
       enabled="true"
       snapvisiblegridlinesonly="true" />
  </sodipodi:namedview>
  <metadata
     id="metadata2899">
    <rdf:RDF>
      <cc:Work
         rdf:about="">
        <dc:format>image/svg+xml</dc:format>
        <dc:type
           rdf:resource="http://purl.org/dc/dcmitype/StillImage" />
        <dc:title />
      </cc:Work>
    </rdf:RDF>
  </metadata>
  <g
     inkscape:label="Layer 1"
     inkscape:groupmode="layer"
     id="layer1"
     transform="translate(0,-952.36218)">
    <path
       sodipodi:type="arc"
       style="fill:#3465a4;fill-opacity:1;fill-rule:evenodd;stroke:none;stroke-width:10;marker:none;visibility:visible;display:inline;overflow:visible;enable-background:accumulate"
       id="path9960-5"
       sodipodi:cx="-538.81537"
       sodipodi:cy="380.61075"
       sodipodi:rx="141.42136"
       sodipodi:ry="141.42136"
       d="m -397.39401,380.61075 a 141.42136,141.42136 0 1 1 -282.84271,0 141.42136,141.42136 0 1 1 282.84271,0 z"
       transform="matrix(0.34565965,0,0,0.34565965,236.3056,870.72349)" />
    <path
       id="path9962-9"
       d="m 33.497285,982.19162 c -3.235543,3.4202 -7.79144,5.27201 -13.920896,7.5208 -1.62106,2.15428 1.624234,4.78976 5.954528,4.98236 3.242763,0.1994 6.740837,-1.63322 9.370615,-2.82199 0.969712,-0.64104 1.983707,-1.32128 3.092035,-1.7553 -0.288008,-0.20196 -0.539524,-0.4269 -0.76963,-0.70213 -0.620145,-0.74172 -0.993659,-1.72407 -1.444751,-3.29457 -0.432235,-1.50484 -0.783602,-2.38311 -1.134201,-2.91649 -0.317354,-0.48284 -0.628327,-0.7329 -1.1477,-1.01268 z m 3.645633,3.96969 c 0.324133,1.06409 0.609469,1.75132 0.918159,2.20087 -0.21386,-0.6754 -0.557848,-1.44946 -0.918159,-2.20087 z"
       style="fill:#fcaf3e;fill-opacity:1;fill-rule:evenodd;stroke:none" />
    <path
       sodipodi:nodetypes="ccsssccscsssccc"
       id="path9964-8"
       d="m 52.751612,968.52726 c -15.591942,0 -18.226495,12.16562 -18.336167,12.7057 0.502864,0.31133 0.94159,0.69563 1.309728,1.25571 0.482569,0.73419 0.85075,1.71663 1.29622,3.26756 0.428761,1.49275 0.780036,2.28756 1.174707,2.79498 0.539532,0.69368 1.410517,0.95928 2.052352,1.29623 0.684418,0.29101 1.496336,0.52762 2.457426,0.71562 0,0 7.345269,0.79626 7.345269,6.04905 0,4.68349 -8.074392,17.82309 -8.074392,17.82309 -0.428144,0.7373 -0.675122,1.5974 -0.675122,2.5114 0,2.7622 2.247151,4.9958 5.009364,4.9958 2.76222,0 4.995866,-2.2336 4.995866,-4.9958 0,-1.0966 -0.360261,-2.1056 -0.958666,-2.9301 -1.52849,-7.344 18.498196,-15.78723 18.498196,-27.12607 0,0 -0.34808,-18.36317 -16.094781,-18.36317 z"
       style="fill:#eeeeec;fill-rule:evenodd;stroke:none" />
    <path
       style="fill:#3465a4;fill-opacity:1;fill-rule:evenodd;stroke:none"
       d="m 38.443373,985.00171 c 0,0 6.715952,-4.84008 11.457105,-6.11046 4.887586,-1.30962 10.235022,0.30553 10.235022,0.30553 0,0 -5.149635,-4.98798 -10.082283,-3.66628 -5.071347,1.35887 -11.609844,9.47121 -11.609844,9.47121 z"
       id="path9966-4"
       sodipodi:nodetypes="czczc" />
    <path
       id="path17"
       d="m 50.372143,976.06745 c 0,0.96944 -0.785876,1.75531 -1.755299,1.75531 -0.969434,0 -1.755309,-0.78587 -1.755309,-1.75531 0,-0.96941 0.785875,-1.75529 1.755309,-1.75529 0.969423,0 1.755299,0.78588 1.755299,1.75529 z"
       style="fill:#eeeeec;fill-opacity:1;fill-rule:evenodd;stroke:#3465a4;stroke-width:0.86414909;stroke-linecap:round;stroke-linejoin:miter;stroke-miterlimit:4;stroke-opacity:1;stroke-dashoffset:0;marker:none;visibility:visible;display:inline;overflow:visible;enable-background:accumulate" />
    <path
       sodipodi:type="arc"
       style="fill:#eeeeec;fill-opacity:1;fill-rule:evenodd;stroke:none;stroke-width:7.89473677;marker:none;visibility:visible;display:inline;overflow:visible;enable-background:accumulate"
       id="path9972-0"
       sodipodi:cx="-169.5"
       sodipodi:cy="429.36218"
       sodipodi:rx="15"
       sodipodi:ry="15"
       d="m -154.5,429.36218 a 15,15 0 1 1 -30,0 15,15 0 1 1 30,0 z"
       transform="matrix(0.47600584,0,0,0.47600584,127.52822,827.67332)" />
    <path
       style="font-size:medium;font-style:normal;font-variant:normal;font-weight:normal;font-stretch:normal;text-indent:0;text-align:start;text-decoration:none;line-height:normal;letter-spacing:normal;word-spacing:normal;text-transform:none;direction:ltr;block-progression:tb;writing-mode:lr-tb;text-anchor:start;color:#000000;fill:#3465a4;fill-opacity:1;fill-rule:evenodd;stroke:none;stroke-width:2;marker:none;visibility:visible;display:inline;overflow:visible;enable-background:accumulate;font-family:Bitstream Charter;-inkscape-font-specification:Bitstream Charter"
       d="m 48.616844,973.88562 c -1.202938,0 -2.187374,0.98444 -2.187374,2.18738 0,1.20294 0.984436,2.18737 2.187374,2.18737 1.202937,0 2.187382,-0.98443 2.187382,-2.18737 0,-1.20294 -0.984445,-2.18738 -2.187382,-2.18738 z m 0,0.86416 c 0.73592,0 1.323226,0.5873 1.323226,1.32322 0,0.73592 -0.587306,1.32323 -1.323226,1.32323 -0.735922,0 -1.323228,-0.58731 -1.323228,-1.32323 0,-0.73592 0.587306,-1.32322 1.323228,-1.32322 z"
       id="path9968-8-5" />
  </g>
</svg>
